<?xml version="1.0" encoding="UTF-8"?>
<svg width="700pt" height="700pt" version="1.1" viewBox="0 0 700 700" xmlns="http://www.w3.org/2000/svg">
 <path d="m256.3 28c-20.754 0-37.727 16.973-37.727 37.727v428.5c0 20.754 16.973 37.77 37.727 37.77h187.36c20.754 0 37.77-17.016 37.77-37.77v-428.5c0-20.754-17.016-37.727-37.77-37.727zm0 10.957h26.609v13.641c0 4.2695 3.5977 7.8633 7.8125 7.8633h118.52c4.2109 0 7.7695-3.5938 7.7695-7.8633v-13.641h26.652c14.801 0 26.812 11.969 26.812 26.77v428.5c0 14.801-12.012 26.812-26.812 26.812h-187.36c-14.801 0-26.812-12.012-26.812-26.812v-428.5c0-14.801 12.012-26.77 26.812-26.77z"/>
</svg>
